<?xml version="1.0" standalone="no"?>
<!DOCTYPE svg PUBLIC "-//W3C//DTD SVG 20010904//EN"
 "http://www.w3.org/TR/2001/REC-SVG-20010904/DTD/svg10.dtd">
<svg version="1.0" xmlns="http://www.w3.org/2000/svg"
 width="700.000000pt" height="700.000000pt" viewBox="0 0 700.000000 700.000000"
 preserveAspectRatio="xMidYMid meet">
<metadata>
Created by potrace 1.11, written by Peter Selinger 2001-2013
</metadata>
<g transform="translate(0.000000,700.000000) scale(0.100000,-0.100000)"
fill="#000000" stroke="none">
<path d="M3420 6988 c-203 -21 -409 -132 -530 -285 l-21 -27 -57 29 c-120 59
-221 80 -372 78 -245 -4 -471 -125 -615 -328 -52 -74 -72 -112 -101 -194 l-22
-64 -124 -2 c-222 -3 -390 -72 -542 -222 -153 -150 -226 -323 -231 -542 -2
-107 -5 -126 -21 -138 -10 -7 -26 -13 -35 -13 -47 0 -226 -110 -304 -187 -150
-148 -236 -364 -229 -573 4 -138 17 -194 71 -311 l34 -76 -66 -64 c-143 -136
-226 -305 -243 -494 -29 -318 133 -621 408 -764 127 -66 226 -92 373 -96 43
-1 79 -4 82 -6 2 -2 6 -37 10 -78 31 -357 292 -664 647 -761 87 -23 134 -28
296 -29 109 -1 122 -3 122 -19 0 -9 11 -49 25 -87 104 -287 325 -490 614 -566
67 -18 262 -30 456 -29 20 0 20 -6 19 -565 l-1 -565 21 -1 c12 -1 207 -2 434
-3 405 -1 413 -1 417 19 2 11 3 262 2 558 -1 297 0 543 3 547 3 4 91 10 195
13 105 3 200 8 213 11 248 58 415 163 560 352 46 60 111 196 129 270 l16 64
121 1 c67 1 132 2 146 4 134 13 251 51 367 116 131 74 261 213 342 367 41 76
77 206 86 307 4 39 8 72 10 74 2 2 41 4 87 6 221 6 407 85 551 232 59 61 116
132 117 146 0 5 9 21 20 37 31 44 78 198 87 285 27 263 -76 521 -272 683 l-38
31 23 48 c83 174 105 342 69 516 -55 269 -250 493 -507 583 l-65 22 -2 124
c-2 134 -17 208 -65 314 -100 221 -289 377 -540 445 -25 7 -100 13 -168 14
l-124 2 -22 64 c-30 84 -82 182 -121 225 -89 99 -123 130 -196 176 -164 103
-363 144 -559 114 -50 -8 -156 -44 -213 -73 -27 -13 -51 -23 -52 -21 -2 2 -42
40 -89 85 -176 169 -391 245 -626 221z m-1499 -4277 c4 -1 7 -118 7 -261 l-1
-260 -106 0 c-138 0 -210 13 -292 55 -109 54 -189 131 -239 229 -55 109 -77
231 -43 238 14 2 653 2 674 -1z m1140 -16 c0 -11 1 -287 2 -613 l2 -593 -163
2 c-128 0 -179 5 -233 20 -204 56 -361 232 -385 431 -9 71 -11 750 -2 763 4 6
146 10 392 10 379 0 386 0 387 -20z m1659 16 c11 -2 2 -747 -10 -805 -39 -187
-206 -358 -395 -401 -77 -18 -375 -20 -376 -3 -1 17 -1 1190 0 1203 1 7 136 9
388 8 214 -1 390 -2 393 -2z m1034 0 c16 -1 18 -7 12 -61 -7 -67 -14 -86 -59
-179 -56 -113 -178 -214 -317 -261 -19 -7 -99 -15 -176 -17 l-142 -5 0 260 c0
231 1 261 16 264 13 3 609 2 666 -1z"/>
</g>
</svg>
